# xmcd
#
# Track frame offsets: 
#        187
#        15027
#        27455
#        38292
#        49947
#        60960
#        76960
#        86195
#        97630
#        108705
#        121107
#        133920
#        146452
#        157485
#        173425
#        185670
#        199615
#        212037
#        224805
#        233385
#        245277
#        256522
#
# Disc length: 3578 seconds
#
# Revision: 0
# Processed by: cddbd v1.4PL0 Copyright (c) Steve Scherf et al.
# Submitted via: ExactAudioCopy v0.90b3
#
DISCID=1d0df816
DTITLE=Brenda Lee - The Brenda Lee Story - Her Greatest Hits
DYEAR=1900
DGENRE=Country
TTITLE0=Johnny One Time
TTITLE1=All Alone Am I
TTITLE2=Sweet Nithin's
TTITLE3=As Usual
TTITLE4=Dum Dum
TTITLE5=You Can Depend On Me
TTITLE6=Coming On Strong
TTITLE7=Losing You
TTITLE8=Fool #1
TTITLE9=Jambalaya (On The Bayou)
TTITLE10=Emotions
TTITLE11=Just Out Of Reach
TTITLE12=Anybody But Me
TTITLE13=We Three (My Echo, My Shadow And Me)
TTITLE14=Thanks A Lot
TTITLE15=I Want To Be Wanted
TTITLE16=You Always Hurt The One You Love
TTITLE17=Too Many Rivers
TTITLE18=My Whole World Is Falling Down
TTITLE19=Break It To Me Gently
TTITLE20=That's All You Gotta Do
TTITLE21=I'm Sorry
EXTD=
EXTT0=
EXTT1=
EXTT2=
EXTT3=
EXTT4=
EXTT5=
EXTT6=
EXTT7=
EXTT8=
EXTT9=
EXTT10=
EXTT11=
EXTT12=
EXTT13=
EXTT14=
EXTT15=
EXTT16=
EXTT17=
EXTT18=
EXTT19=
EXTT20=
EXTT21=
PLAYORDER=
